<?xml version="1.0" encoding="UTF-8" standalone="no"?>
<!DOCTYPE svg PUBLIC "-//W3C//DTD SVG 1.1//EN" "http://www.w3.org/Graphics/SVG/1.1/DTD/svg11.dtd">
<svg width="100%" height="100%" viewBox="0 0 980 480" version="1.1" xmlns="http://www.w3.org/2000/svg" xmlns:xlink="http://www.w3.org/1999/xlink" xml:space="preserve" xmlns:serif="http://www.serif.com/" style="fill-rule:evenodd;clip-rule:evenodd;stroke-linejoin:round;stroke-miterlimit:2;">
    <g transform="matrix(0.972345,0,0,0.940694,138.519,-27.2251)">
        <ellipse cx="361.433" cy="94.69" rx="38.567" ry="39.864" style="fill:rgb(240,103,24);"/>
    </g>
    <g transform="matrix(0.879979,0,0,0.407117,138.371,10.1812)">
        <path d="M416.584,163.757C416.584,143.422 408.946,126.912 399.538,126.912C390.13,126.912 382.492,143.422 382.492,163.757L382.492,370.27C382.492,390.605 390.13,407.115 399.538,407.115C408.946,407.115 416.584,390.605 416.584,370.27L416.584,163.757Z" style="fill:rgb(240,103,24);"/>
    </g>
    <g transform="matrix(0.879979,0,0,0.407117,-116.462,94.2565)">
        <path d="M416.584,163.757C416.584,143.422 408.946,126.912 399.538,126.912C390.13,126.912 382.492,143.422 382.492,163.757L382.492,370.27C382.492,390.605 390.13,407.115 399.538,407.115C408.946,407.115 416.584,390.605 416.584,370.27L416.584,163.757Z" style="fill:rgb(240,103,24);"/>
    </g>
    <g transform="matrix(0.713053,0,0,0.689842,681.414,362.754)">
        <ellipse cx="361.433" cy="94.69" rx="38.567" ry="39.864" style="fill:rgb(240,103,24);"/>
    </g>
    <g transform="matrix(0.713053,0,0,0.689842,525.198,362.754)">
        <ellipse cx="361.433" cy="94.69" rx="38.567" ry="39.864" style="fill:rgb(240,103,24);"/>
    </g>
    <g transform="matrix(0.879979,0,0,0.407117,587.55,262.332)">
        <path d="M416.584,163.757C416.584,143.422 408.946,126.912 399.538,126.912C390.13,126.912 382.492,143.422 382.492,163.757L382.492,370.27C382.492,390.605 390.13,407.115 399.538,407.115C408.946,407.115 416.584,390.605 416.584,370.27L416.584,163.757Z" style="fill:rgb(240,103,24);"/>
    </g>
    <g transform="matrix(0.879979,0,0,0.407117,431.334,262.332)">
        <path d="M416.584,163.757C416.584,143.422 408.946,126.912 399.538,126.912C390.13,126.912 382.492,143.422 382.492,163.757L382.492,370.27C382.492,390.605 390.13,407.115 399.538,407.115C408.946,407.115 416.584,390.605 416.584,370.27L416.584,163.757Z" style="fill:rgb(240,103,24);"/>
    </g>
    <g transform="matrix(0.346354,0,0,0.996767,727.905,125.382)">
        <path d="M653.175,204.279C653.175,195.973 633.769,189.23 609.867,189.23L158.838,189.23C134.935,189.23 115.529,195.973 115.529,204.279C115.529,212.584 134.935,219.327 158.838,219.327L609.867,219.327C633.769,219.327 653.175,212.584 653.175,204.279Z" style="fill:rgb(240,103,24);"/>
    </g>
    <g transform="matrix(0.713053,0,0,0.689842,449.469,363.009)">
        <ellipse cx="361.433" cy="94.69" rx="38.567" ry="39.864" style="fill:rgb(240,103,24);"/>
    </g>
    <g transform="matrix(0.713053,0,0,0.689842,293.253,363.009)">
        <ellipse cx="361.433" cy="94.69" rx="38.567" ry="39.864" style="fill:rgb(240,103,24);"/>
    </g>
    <g transform="matrix(0.879979,0,0,0.407117,355.605,262.586)">
        <path d="M416.584,163.757C416.584,143.422 408.946,126.912 399.538,126.912C390.13,126.912 382.492,143.422 382.492,163.757L382.492,370.27C382.492,390.605 390.13,407.115 399.538,407.115C408.946,407.115 416.584,390.605 416.584,370.27L416.584,163.757Z" style="fill:rgb(240,103,24);"/>
    </g>
    <g transform="matrix(0.879979,0,0,0.407117,199.389,262.586)">
        <path d="M416.584,163.757C416.584,143.422 408.946,126.912 399.538,126.912C390.13,126.912 382.492,143.422 382.492,163.757L382.492,370.27C382.492,390.605 390.13,407.115 399.538,407.115C408.946,407.115 416.584,390.605 416.584,370.27L416.584,163.757Z" style="fill:rgb(240,103,24);"/>
    </g>
    <g transform="matrix(0.346354,0,0,0.996767,495.96,125.636)">
        <path d="M653.175,204.279C653.175,195.973 633.769,189.23 609.867,189.23L158.838,189.23C134.935,189.23 115.529,195.973 115.529,204.279C115.529,212.584 134.935,219.327 158.838,219.327L609.867,219.327C633.769,219.327 653.175,212.584 653.175,204.279Z" style="fill:rgb(240,103,24);"/>
    </g>
    <g transform="matrix(0.879979,0,0,0.407117,393.205,94.2565)">
        <path d="M416.584,163.757C416.584,143.422 408.946,126.912 399.538,126.912C390.13,126.912 382.492,143.422 382.492,163.757L382.492,370.27C382.492,390.605 390.13,407.115 399.538,407.115C408.946,407.115 416.584,390.605 416.584,370.27L416.584,163.757Z" style="fill:rgb(240,103,24);"/>
    </g>
    <g transform="matrix(0.879979,0,0,0.407117,509.442,178.332)">
        <path d="M416.584,163.757C416.584,143.422 408.946,126.912 399.538,126.912C390.13,126.912 382.492,143.422 382.492,163.757L382.492,370.27C382.492,390.605 390.13,407.115 399.538,407.115C408.946,407.115 416.584,390.605 416.584,370.27L416.584,163.757Z" style="fill:rgb(240,103,24);"/>
    </g>
    <g transform="matrix(0.488503,0,0,0.996767,557.033,41.3817)">
        <path d="M653.175,204.279C653.175,195.973 639.416,189.23 622.469,189.23L146.235,189.23C129.288,189.23 115.529,195.973 115.529,204.279C115.529,212.584 129.288,219.327 146.235,219.327L622.469,219.327C639.416,219.327 653.175,212.584 653.175,204.279Z" style="fill:rgb(240,103,24);"/>
    </g>
    <g transform="matrix(0.879979,0,0,0.407117,276.974,178.332)">
        <path d="M416.584,163.757C416.584,143.422 408.946,126.912 399.538,126.912C390.13,126.912 382.492,143.422 382.492,163.757L382.492,370.27C382.492,390.605 390.13,407.115 399.538,407.115C408.946,407.115 416.584,390.605 416.584,370.27L416.584,163.757Z" style="fill:rgb(240,103,24);"/>
    </g>
    <g transform="matrix(1.00376,0,0,0.996767,104.16,-42.6936)">
        <path d="M653.175,204.279C653.175,195.973 646.479,189.23 638.231,189.23L130.473,189.23C122.225,189.23 115.529,195.973 115.529,204.279C115.529,212.584 122.225,219.327 130.473,219.327L638.231,219.327C646.479,219.327 653.175,212.584 653.175,204.279Z" style="fill:rgb(240,103,24);"/>
    </g>
    <g transform="matrix(0.713053,0,0,0.689842,171.482,362.499)">
        <ellipse cx="361.433" cy="94.69" rx="38.567" ry="39.864" style="fill:rgb(240,103,24);"/>
    </g>
    <g transform="matrix(0.713053,0,0,0.689842,15.2665,362.499)">
        <ellipse cx="361.433" cy="94.69" rx="38.567" ry="39.864" style="fill:rgb(240,103,24);"/>
    </g>
    <g transform="matrix(0.879979,0,0,0.407117,77.6183,262.077)">
        <path d="M416.584,163.757C416.584,143.422 408.946,126.912 399.538,126.912C390.13,126.912 382.492,143.422 382.492,163.757L382.492,370.27C382.492,390.605 390.13,407.115 399.538,407.115C408.946,407.115 416.584,390.605 416.584,370.27L416.584,163.757Z" style="fill:rgb(240,103,24);"/>
    </g>
    <g transform="matrix(0.879979,0,0,0.407117,-78.5974,262.077)">
        <path d="M416.584,163.757C416.584,143.422 408.946,126.912 399.538,126.912C390.13,126.912 382.492,143.422 382.492,163.757L382.492,370.27C382.492,390.605 390.13,407.115 399.538,407.115C408.946,407.115 416.584,390.605 416.584,370.27L416.584,163.757Z" style="fill:rgb(240,103,24);"/>
    </g>
    <g transform="matrix(0.346354,0,0,0.996767,217.974,125.127)">
        <path d="M653.175,204.279C653.175,195.973 633.769,189.23 609.867,189.23L158.838,189.23C134.935,189.23 115.529,195.973 115.529,204.279C115.529,212.584 134.935,219.327 158.838,219.327L609.867,219.327C633.769,219.327 653.175,212.584 653.175,204.279Z" style="fill:rgb(240,103,24);"/>
    </g>
    <g transform="matrix(0.713053,0,0,0.689842,-60.4626,362.754)">
        <ellipse cx="361.433" cy="94.69" rx="38.567" ry="39.864" style="fill:rgb(240,103,24);"/>
    </g>
    <g transform="matrix(0.713053,0,0,0.689842,-216.678,362.754)">
        <ellipse cx="361.433" cy="94.69" rx="38.567" ry="39.864" style="fill:rgb(240,103,24);"/>
    </g>
    <g transform="matrix(0.879979,0,0,0.407117,-154.326,262.332)">
        <path d="M416.584,163.757C416.584,143.422 408.946,126.912 399.538,126.912C390.13,126.912 382.492,143.422 382.492,163.757L382.492,370.27C382.492,390.605 390.13,407.115 399.538,407.115C408.946,407.115 416.584,390.605 416.584,370.27L416.584,163.757Z" style="fill:rgb(240,103,24);"/>
    </g>
    <g transform="matrix(0.879979,0,0,0.407117,-310.542,262.332)">
        <path d="M416.584,163.757C416.584,143.422 408.946,126.912 399.538,126.912C390.13,126.912 382.492,143.422 382.492,163.757L382.492,370.27C382.492,390.605 390.13,407.115 399.538,407.115C408.946,407.115 416.584,390.605 416.584,370.27L416.584,163.757Z" style="fill:rgb(240,103,24);"/>
    </g>
    <g transform="matrix(0.346354,0,0,0.996767,-13.9711,125.382)">
        <path d="M653.175,204.279C653.175,195.973 633.769,189.23 609.867,189.23L158.838,189.23C134.935,189.23 115.529,195.973 115.529,204.279C115.529,212.584 134.935,219.327 158.838,219.327L609.867,219.327C633.769,219.327 653.175,212.584 653.175,204.279Z" style="fill:rgb(240,103,24);"/>
    </g>
    <g transform="matrix(0.879979,0,0,0.407117,-0.489556,178.077)">
        <path d="M416.584,163.757C416.584,143.422 408.946,126.912 399.538,126.912C390.13,126.912 382.492,143.422 382.492,163.757L382.492,370.27C382.492,390.605 390.13,407.115 399.538,407.115C408.946,407.115 416.584,390.605 416.584,370.27L416.584,163.757Z" style="fill:rgb(240,103,24);"/>
    </g>
    <g transform="matrix(0.488503,0,0,0.996767,47.1015,41.1271)">
        <path d="M653.175,204.279C653.175,195.973 639.416,189.23 622.469,189.23L146.235,189.23C129.288,189.23 115.529,195.973 115.529,204.279C115.529,212.584 129.288,219.327 146.235,219.327L622.469,219.327C639.416,219.327 653.175,212.584 653.175,204.279Z" style="fill:rgb(240,103,24);"/>
    </g>
    <g transform="matrix(0.879979,0,0,0.407117,-232.957,178.077)">
        <path d="M416.584,163.757C416.584,143.422 408.946,126.912 399.538,126.912C390.13,126.912 382.492,143.422 382.492,163.757L382.492,370.27C382.492,390.605 390.13,407.115 399.538,407.115C408.946,407.115 416.584,390.605 416.584,370.27L416.584,163.757Z" style="fill:rgb(240,103,24);"/>
    </g>
</svg>
